<?xml version="1.0" encoding="UTF-8"?><svg id="Final_Logo" xmlns="http://www.w3.org/2000/svg" xmlns:xlink="http://www.w3.org/1999/xlink" viewBox="0 0 288 432"><defs><style>.cls-1{fill:url(#linear-gradient);}.cls-2{fill:#03793e;}.cls-3{fill:#e4d8c3;}.cls-4{fill:#8aab88;}.cls-5{fill:url(#linear-gradient-3);}.cls-6{fill:url(#linear-gradient-4);}.cls-7{fill:url(#linear-gradient-2);}.cls-8{fill:url(#linear-gradient-5);}.cls-9{fill:url(#radial-gradient);}.cls-10{isolation:isolate;}</style><linearGradient id="linear-gradient" x1="101.67" y1="268.86" x2="231.41" y2="268.86" gradientTransform="translate(0 434) scale(1 -1)" gradientUnits="userSpaceOnUse"><stop offset="0" stop-color="#939598"/><stop offset=".2" stop-color="#b7b8ba"/><stop offset=".42" stop-color="#d6d7d8"/><stop offset=".62" stop-color="#eceded"/><stop offset=".82" stop-color="#fafafa"/><stop offset="1" stop-color="#fff"/></linearGradient><linearGradient id="linear-gradient-2" x1="40.3" y1="270.78" x2="156.65" y2="270.78" gradientTransform="translate(0 434) scale(1 -1)" gradientUnits="userSpaceOnUse"><stop offset="0" stop-color="#ceb992"/><stop offset="1" stop-color="#e4d8c3"/></linearGradient><linearGradient id="linear-gradient-3" x1="40.3" y1="226.93" x2="156.65" y2="226.93" gradientTransform="translate(0 434) scale(1 -1)" gradientUnits="userSpaceOnUse"><stop offset="0" stop-color="#03793e"/><stop offset=".13" stop-color="#22844f"/><stop offset=".31" stop-color="#479263"/><stop offset=".48" stop-color="#649d73"/><stop offset=".66" stop-color="#79a47e"/><stop offset=".83" stop-color="#85a985"/><stop offset="1" stop-color="#8aab88"/></linearGradient><linearGradient id="linear-gradient-4" x1="40.3" y1="334.27" x2="156.65" y2="334.27" gradientTransform="translate(0 434) scale(1 -1)" gradientUnits="userSpaceOnUse"><stop offset="0" stop-color="#03793e"/><stop offset=".13" stop-color="#22844f"/><stop offset=".31" stop-color="#479263"/><stop offset=".48" stop-color="#649d73"/><stop offset=".66" stop-color="#79a47e"/><stop offset=".83" stop-color="#85a985"/><stop offset="1" stop-color="#8aab88"/></linearGradient><linearGradient id="linear-gradient-5" x1="40.3" y1="171.02" x2="156.65" y2="171.02" gradientTransform="translate(0 434) scale(1 -1)" gradientUnits="userSpaceOnUse"><stop offset="0" stop-color="#ceb992"/><stop offset="1" stop-color="#e4d8c3"/></linearGradient><radialGradient id="radial-gradient" cx="231.41" cy="269.54" fx="231.41" fy="269.54" r="29.66" gradientTransform="translate(0 434) scale(1 -1)" gradientUnits="userSpaceOnUse"><stop offset="0" stop-color="#939598"/><stop offset=".29" stop-color="#8f9194"/><stop offset=".53" stop-color="#86888a"/><stop offset=".75" stop-color="#757779"/><stop offset=".95" stop-color="#5f6062"/><stop offset="1" stop-color="#58595b"/></radialGradient></defs><polygon class="cls-1" points="231.41 284.5 165.71 295.61 102.02 292.18 101.67 37.15 165.62 34.67 231.41 44.88 231.41 284.5"/><polygon points="196.48 232.01 112.19 232.01 112.19 228.58 194.44 228.58 229.91 163.64 232.91 165.29 196.48 232.01"/><polygon points="229.91 165.29 194.45 100.99 112.19 100.99 112.19 97.57 196.47 97.57 232.91 163.64 229.91 165.29"/><polygon points="165.11 297.3 164.55 293.92 230.19 283.05 230.19 164.83 233.62 164.83 233.62 285.96 165.11 297.3"/><rect x="112.19" y="163.07" width="119.72" height="3.43"/><polygon points="233.62 164.83 230.19 164.83 230.19 46.33 164.55 35.46 165.11 32.08 233.62 43.43 233.62 164.83"/><g class="cls-10"><g class="cls-10"><path d="m37.96,318.23h6.97v26.83h13.46v-26.83h6.88v64.7h-6.88v-31.58h-13.46v31.58h-6.97v-64.7Z"/></g><g class="cls-10"><path d="m77.87,333.63c3.2,17.92,6.39,34.97,6.78,40.68h.19c.97-7.94,4.26-23.83,7.26-40.68h6.88l-10.95,51.92c-2.91,13.75-7.07,14.72-12.4,14.72-1.26,0-2.71-.19-3.68-.39l.1-6.3c.39.1,1.84.29,2.71.29,3.58,0,5.13-1.55,6.49-9.1l-10.85-51.14h7.46Z"/></g><g class="cls-10"><path d="m104.12,347.87c0-6.78,0-11.14-.1-14.24h6.59c.1,1.07.29,3,.29,5.23,1.16-3.29,3.87-6.01,8.91-6.01,6.68,0,9.98,4.55,9.98,14.24v20.92c0,10.95-4.17,15.69-10.75,15.69-4.94,0-6.97-2.52-8.04-4.84v20.73h-6.88v-51.72Zm6.78,18.11c0,5.81.87,11.43,6.2,11.43,4.17,0,5.81-3.39,5.81-9.2v-20.83c0-5.91-2.23-8.23-5.33-8.23-5.13,0-6.68,4.36-6.68,10.75v16.08Z"/></g><g class="cls-10"><path d="m143.06,359.68v8.04c0,4.94.97,10.07,5.81,10.07s5.62-3.87,5.62-8.52v-.39h6.68v.29c0,5.71-1.26,14.53-12.21,14.53-10.36,0-12.69-6.78-12.69-16.76v-18.4c0-7.46,2.62-15.69,12.79-15.69,9.49,0,12.3,7.07,12.3,15.69v11.14h-18.31Zm11.62-5.62v-6.2c0-4.55-.78-9.11-5.71-9.11-4.65,0-5.81,3.88-5.81,9.2v6.1h11.53Z"/></g><g class="cls-10"><path d="m185.68,341.47c-6.01,0-10.17,3.58-10.17,12.5v28.96h-6.88v-32.55c0-7.94,0-12.4-.1-16.76h6.59c.1,1.26.19,4.36.19,7.65,1.84-6,6.1-8.23,10.36-8.33v8.52Z"/></g><g class="cls-10"><path class="cls-2" d="m216.78,364.33v2.23c0,8.23-1.45,17.24-13.17,17.24s-13.17-7.94-13.17-17.44v-32.93c0-10.36,4.46-16.08,13.27-16.08,10.85,0,12.79,7.75,12.79,16.18v2.52h-6.97v-3c0-5.13-.87-9.4-5.91-9.4s-6.1,3.88-6.1,9.59v33.51c0,6.49,1.45,10.75,6.3,10.75s5.91-4.36,5.91-10.46v-2.71h7.07Z"/></g><g class="cls-10"><path class="cls-2" d="m230.34,324.62h-10.46v-6.39h27.8v6.39h-10.46v58.31h-6.88v-58.31Z"/></g></g><g><path class="cls-3" d="m62.25,43.84c5.08,5.54,27.75,9.72,54.95,9.72,30.94,0,56.02-5.4,56.02-12.07,0-2.15-2.63-4.17-7.22-5.92-6.74-.29-13.71-.45-20.85-.45-33.69,0-63.67,3.41-82.9,8.72Z"/><path d="m145.15,35.12c7.14,0,14.11.15,20.85.45,4.59,1.75,7.22,3.77,7.22,5.92,0,6.67-25.08,12.07-56.02,12.07-27.2,0-49.86-4.18-54.95-9.72,19.24-5.31,49.22-8.72,82.9-8.72m0-1.71c-32.75,0-63.13,3.2-83.36,8.79l-2.7.75,1.9,2.07c5.55,6.05,28.67,10.27,56.21,10.27,23.21,0,57.74-3.67,57.74-13.78,0-2.93-2.72-5.39-8.32-7.52l-.26-.1h-.28c-6.86-.31-13.9-.46-20.92-.46h0v-.02Z"/></g><g><path class="cls-7" d="m156.33,167.85c0,.4,0,.78-.02,1.17h0c0,.32-.02.63-.04.93-1.08,19.09-16.91,34.24-36.27,34.24h-.93c-3.56-19.35-17.02-35.24-34.92-42.22-5.62-2.19-11.68-3.51-18-3.77,4.43-20.55,22.7-35.95,44.58-35.95,24.8,0,44.97,19.79,45.59,44.44h0c0,.4.02.78.02,1.18v-.02Z"/><path d="m110.72,122.23c24.8,0,44.97,19.79,45.59,44.44h0c0,.4.02.78.02,1.18s0,.78-.02,1.17h0c0,.32-.02.63-.04.93-1.08,19.09-16.91,34.24-36.27,34.24h-.93c-3.56-19.35-17.02-35.24-34.92-42.22-5.62-2.19-11.68-3.51-18-3.77,4.43-20.55,22.7-35.95,44.58-35.95m0-1.71c-10.88,0-21.5,3.79-29.91,10.66-8.29,6.78-14.09,16.24-16.34,26.65l-.43,1.99,2.03.08c5.99.25,11.86,1.48,17.45,3.65,17.5,6.82,30.47,22.5,33.86,40.93l.25,1.36,1.38.04c.33,0,.65,0,.99,0,20.16,0,36.85-15.75,37.98-35.86.02-.3.03-.63.04-.95v-.06c0-.37.02-.77.02-1.18s0-.81-.02-1.21c-.31-12.39-5.37-23.99-14.24-32.66-8.89-8.68-20.63-13.47-33.06-13.47h0v.02Z"/></g><g><path class="cls-5" d="m119.06,204.17c-3.56-19.35-17.02-35.24-34.92-42.22-5.62-2.19-11.68-3.51-18-3.77-.81-.04-1.62-.06-2.44-.06-8.45,0-16.46,1.87-23.66,5.21v34.01c4.63,10.26,12.24,18.89,21.74,24.77-.47,2-.71,4.11-.71,6.25,0,15.27,12.38,27.66,27.66,27.66,10.02,0,18.8-5.33,23.65-13.32.12-.18.22-.37.33-.56.16-.28.32-.56.47-.85,0-.02.02-.03.03-.05,3.02-5.55,5.13-11.67,6.13-18.16.43-2.83.66-5.72.66-8.67,0-.64,0-1.27-.04-1.9-.09-2.84-.4-5.64-.9-8.35h0Z"/><path d="m63.7,158.12c.82,0,1.63.02,2.44.06,6.32.26,12.38,1.58,18,3.77,17.9,6.98,31.37,22.87,34.92,42.22.5,2.72.81,5.51.9,8.35.03.63.04,1.26.04,1.9,0,2.95-.23,5.84-.66,8.67-1,6.49-3.11,12.6-6.13,18.16,0,.02-.02.03-.03.05-.15.29-.31.57-.47.85-.11.19-.21.38-.33.56-4.85,7.99-13.63,13.32-23.65,13.32-15.27,0-27.66-12.38-27.66-27.66,0-2.15.24-4.25.71-6.25-9.5-5.88-17.11-14.51-21.74-24.77v-34.01c7.2-3.34,15.21-5.21,23.66-5.21m0-1.71c-8.5,0-16.7,1.81-24.38,5.37l-.99.46v35.48l.15.34c4.6,10.21,11.98,18.78,21.38,24.87-.33,1.77-.5,3.59-.5,5.44,0,16.2,13.18,29.37,29.37,29.37,10.35,0,19.74-5.29,25.11-14.14.12-.19.24-.4.36-.62.14-.24.3-.53.46-.82.02-.03.04-.06.06-.1,3.17-5.84,5.29-12.13,6.31-18.7.45-2.97.69-5.98.69-8.93,0-.74-.01-1.39-.04-1.98-.09-2.84-.4-5.74-.92-8.59-3.6-19.59-17.39-36.26-35.99-43.5-5.95-2.31-12.19-3.62-18.55-3.88-.82-.04-1.67-.06-2.51-.06h0Z"/></g><g><path class="cls-6" d="m163.76,80.07c-4.34,13.31-16.41,23.34-30.59,25.39-3.63,20.59-21.61,36.23-43.24,36.23-24.25,0-43.9-19.65-43.9-43.89,0-4.44.66-8.72,1.89-12.76-3.1-1.95-5.78-4.5-7.87-7.49v-19.79c0,12.51,47.07,22.65,105.12,22.65,6.19,0,12.71-.12,18.6-.34h-.01Z"/><path d="m40.04,57.77c0,12.51,47.07,22.65,105.12,22.65,6.19,0,12.71-.12,18.6-.34-4.34,13.31-16.41,23.34-30.59,25.39-3.63,20.59-21.61,36.23-43.24,36.23-24.25,0-43.9-19.65-43.9-43.89,0-4.44.66-8.72,1.89-12.76-3.1-1.95-5.78-4.5-7.87-7.49v-19.79m1.71,0h-3.43v20.33l.31.44c1.99,2.85,4.44,5.28,7.28,7.24-1.07,3.89-1.61,7.93-1.61,12.02,0,25.15,20.46,45.61,45.62,45.61,21.77,0,40.38-15.25,44.7-36.45,14.33-2.53,26.33-12.76,30.76-26.36l.76-2.34-2.46.09c-5.76.22-12.34.34-18.53.34-27.96,0-54.23-2.34-73.97-6.59-14.23-3.07-29.44-8.44-29.44-14.34h.01Z"/></g><g><path class="cls-8" d="m165.71,293.74c-4.09-19.66-21.51-34.44-42.39-34.44-5.1,0-9.98.89-14.52,2.5-10.62-17.96-30.17-30.01-52.54-30.01-5.61,0-11.05.77-16.21,2.19v37.54c0,7.4,16.48,13.97,41.96,18.1h0c.18.03.38.06.56.09.46.07.93.14,1.39.22.67.1,1.34.21,2.02.31.47.07.94.14,1.41.2.69.1,1.39.2,2.1.29.47.06.95.13,1.42.19.73.09,1.46.19,2.19.28.47.06.94.11,1.41.17.76.09,1.52.18,2.28.26.47.05.95.1,1.43.16.78.08,1.56.17,2.36.25.48.05.96.09,1.44.14.81.08,1.62.16,2.44.23.47.04.95.08,1.42.13.84.07,1.69.14,2.54.21.47.04.94.07,1.42.11.87.07,1.74.13,2.62.19.47.03.95.07,1.42.1.89.06,1.78.12,2.68.17.23.01.45.03.68.04h0c8.89.53,18.24.81,27.9.81,7.03,0,13.9-.15,20.55-.43h.02Z"/><path d="m56.25,231.79c22.37,0,41.92,12.05,52.54,30.01,4.54-1.62,9.43-2.5,14.52-2.5,20.88,0,38.3,14.78,42.39,34.44-6.65.28-13.52.43-20.55.43-9.66,0-19.02-.29-27.9-.81h0c-.23-.01-.45-.03-.68-.04-.9-.05-1.79-.11-2.68-.17-.48-.03-.95-.06-1.42-.1-.88-.06-1.75-.13-2.62-.19-.47-.04-.95-.07-1.42-.11-.85-.07-1.7-.14-2.54-.21-.48-.04-.95-.08-1.42-.13-.82-.07-1.63-.15-2.44-.23-.48-.05-.96-.09-1.44-.14-.79-.08-1.58-.16-2.36-.25-.48-.05-.96-.1-1.43-.16-.77-.09-1.53-.17-2.28-.26-.47-.06-.95-.11-1.41-.17-.74-.09-1.47-.18-2.19-.28-.48-.06-.95-.12-1.42-.19-.71-.1-1.4-.19-2.1-.29-.47-.07-.95-.13-1.41-.2-.68-.1-1.35-.2-2.02-.31-.46-.07-.93-.14-1.39-.22-.19-.03-.38-.06-.56-.09h0c-25.47-4.13-41.96-10.7-41.96-18.1v-37.54c5.16-1.42,10.59-2.19,16.21-2.19m0-1.71c-5.62,0-11.22.76-16.66,2.26l-1.26.35v38.85c0,10.66,25.08,16.67,41.42,19.46h0l1.97.33.31.05.25.04c.36.06.72.11,1.09.17l.31.05c.67.1,1.35.21,2.03.31.38.06.76.11,1.15.16l.28.04c.7.1,1.4.2,2.11.29.4.05.81.11,1.21.16l.22.03c.73.1,1.46.19,2.21.28l1.21.15.21.02c.76.09,1.52.18,2.3.27l1.31.14h.13c.78.1,1.57.18,2.37.26.47.05.94.09,1.41.14.84.08,1.66.16,2.48.23l1.43.13c.85.07,1.69.15,2.55.21l1.42.11c.87.07,1.75.13,2.63.19l1.43.1c.89.06,1.79.12,2.69.17l.31.02.37.02,1.82.11h0c8.56.46,17.36.7,26.19.7,6.92,0,13.86-.15,20.62-.44l2.02-.09-.41-1.98c-4.31-20.75-22.85-35.81-44.07-35.81-4.7,0-9.32.72-13.77,2.15-11.4-18.33-31.69-29.66-53.3-29.66h0v.03Z"/></g><g><path class="cls-4" d="m163.76,80.06c-6.04.23-12.25.36-18.6.36-9.27,0-18.26-.26-26.82-.74-27.61-1.57-50.78-5.49-64.58-10.72-8.73-3.3-13.71-7.12-13.71-11.19,0-5.47,9.02-10.49,24.03-14.42,40.08,4.62,67.36,13.71,67.36,24.19,0,.13,0,.28-.02.41,18.97,2.52,31.77,6.98,32.34,12.1h0Z"/><path d="m64.08,43.35c40.08,4.62,67.36,13.71,67.36,24.19,0,.13,0,.28-.02.41,18.97,2.52,31.77,6.98,32.34,12.1-6.04.23-12.25.36-18.6.36-9.27,0-18.26-.26-26.82-.74-27.61-1.57-50.78-5.49-64.58-10.72-8.73-3.3-13.71-7.12-13.71-11.19,0-5.47,9.02-10.49,24.03-14.42m-.12-1.74l-.31.08c-16.8,4.39-25.31,9.8-25.31,16.07,0,4.78,4.99,9.08,14.82,12.79,14.07,5.33,37.8,9.27,65.09,10.82,8.78.49,17.83.74,26.92.74,6.18,0,12.46-.12,18.66-.36l1.84-.07-.2-1.83c-.86-7.76-20.03-11.69-32.39-13.42-.77-5.5-7.39-10.48-19.72-14.82-11.98-4.21-28.95-7.66-49.08-9.98l-.32-.04h0v.02Z"/></g><path d="m145.15,35.12c7.14,0,14.11.15,20.85.45,4.59,1.75,7.22,3.77,7.22,5.92,0,6.67-25.08,12.07-56.02,12.07-1.22,0-2.43,0-3.63-.03,11.34,4.1,17.87,8.89,17.87,14.01,0,.13,0,.28-.02.41,18.97,2.52,31.77,6.98,32.34,12.1l-.02.02h.02c-4.34,13.31-16.41,23.34-30.59,25.39-1.25,7.06-4.21,13.51-8.39,18.98,17.95,5.82,31.04,22.45,31.53,42.22h0c0,.4.02.78.02,1.18s0,.78-.02,1.17h0c0,.32-.02.63-.04.93-1.08,19.09-16.91,34.24-36.27,34.24h-.93c.5,2.72.81,5.51.9,8.35.03.63.04,1.26.04,1.9,0,2.95-.23,5.84-.66,8.67-1,6.49-3.11,12.6-6.13,18.16,0,.02-.02.03-.03.05-.15.29-.31.57-.47.85-.11.19-.21.38-.33.56-2.5,4.12-6.06,7.53-10.28,9.87,2.51,2.86,4.76,5.94,6.7,9.23,4.54-1.62,9.43-2.5,14.52-2.5,20.88,0,38.3,14.78,42.39,34.44-6.65.28-13.52.43-20.55.43-9.66,0-19.02-.29-27.9-.81h0c-.23-.01-.45-.03-.68-.04-.9-.05-1.79-.11-2.68-.17-.48-.03-.95-.06-1.42-.1-.88-.06-1.75-.13-2.62-.19-.47-.04-.95-.07-1.42-.11-.85-.07-1.7-.14-2.54-.21-.48-.04-.95-.08-1.42-.13-.82-.07-1.63-.15-2.44-.23-.48-.05-.96-.09-1.44-.14-.79-.08-1.58-.16-2.36-.25-.48-.05-.96-.1-1.43-.16-.77-.09-1.53-.17-2.28-.26-.47-.06-.95-.11-1.41-.17-.74-.09-1.47-.18-2.19-.28-.48-.06-.95-.12-1.42-.19-.71-.1-1.4-.19-2.1-.29-.47-.07-.95-.13-1.41-.2-.68-.1-1.35-.2-2.02-.31-.46-.07-.93-.14-1.39-.22-.19-.03-.38-.06-.56-.09h0c-25.47-4.13-41.96-10.7-41.96-18.1v-37.54c5.16-1.42,10.59-2.19,16.21-2.19,1.72,0,3.41.09,5.09.23-.16-1.2-.27-2.42-.27-3.66,0-2.15.24-4.25.71-6.25-9.5-5.88-17.11-14.51-21.74-24.77v-34.01c7.2-3.34,15.21-5.21,23.66-5.21.82,0,1.63.02,2.44.06,1.53-7.09,4.74-13.55,9.15-18.99-17.04-6.03-29.26-22.27-29.26-41.38,0-4.44.66-8.72,1.89-12.76-3.1-1.95-5.78-4.5-7.87-7.49v-19.79c0-5.25,8.3-10.07,22.21-13.92h0c.07-.02.15-.04.21-.06.53-.15,1.06-.3,1.61-.44h.05c19.28-5.03,48.4-8.23,81.03-8.23m0-3.43c-31.55,0-61.28,3.01-81.61,8.27-.11.02-.22.04-.33.07-.42.11-.83.22-1.23.33l-.42.12-.22.06s-.08.02-.13.04c-16.55,4.59-24.6,10.22-24.6,17.19v19.79c0,.7.22,1.39.62,1.97,1.88,2.68,4.13,5.02,6.73,6.96-.91,3.68-1.36,7.47-1.36,11.32,0,18.48,10.81,35.19,27.32,42.89-2.88,4.32-5.07,9.06-6.45,14-8.67.03-17.04,1.89-24.87,5.53-1.21.56-1.99,1.78-1.99,3.11v34.01c0,.49.1.97.3,1.41,4.59,10.16,11.84,18.76,21.06,24.98-.23,1.52-.34,3.06-.34,4.63v.02c-.47,0-.93-.02-1.39-.02-5.77,0-11.53.78-17.12,2.32-1.49.41-2.52,1.76-2.52,3.31v37.54c0,9.41,15.02,16.63,44.65,21.45.06.01.12.03.18.04l.33.05.24.04c.38.06.76.12,1.14.18l.27.04c.68.1,1.36.21,2.04.31.4.06.8.12,1.21.17l.22.03c.7.1,1.41.2,2.12.3.4.05.81.11,1.21.16l.23.03c.73.1,1.47.19,2.22.28.41.05.83.1,1.25.15l.18.02c.76.09,1.53.18,2.31.27l1.29.14.15.02c.79.08,1.58.17,2.38.25l1.36.13h.09c.82.09,1.64.17,2.47.24l1.43.13c.85.07,1.71.15,2.57.22l1.43.11c.87.07,1.75.13,2.64.19l1.43.1c.9.06,1.8.12,2.7.17l.3.02.38.02h.15c9.12.54,18.52.81,27.95.81,6.94,0,13.91-.15,20.7-.44,1.01-.04,1.94-.53,2.56-1.32s.86-1.82.65-2.8c-4.48-21.54-23.72-37.17-45.74-37.17-4.43,0-8.8.62-13.02,1.85-.97-1.49-2.01-2.94-3.1-4.36,3.24-2.4,6-5.41,8.1-8.86.14-.22.27-.44.39-.67.16-.28.32-.56.47-.84.03-.04.05-.09.08-.14,3.26-6.01,5.45-12.48,6.49-19.24.47-3.06.71-6.15.71-9.2,0-.77-.01-1.44-.04-2.06-.05-1.61-.17-3.24-.36-4.87,19.69-1.49,35.54-17.36,36.67-37.36.02-.31.03-.66.04-1v-.06c0-.41.02-.81.02-1.22s0-.82-.02-1.23v-.04c-.48-19.23-12.21-36.3-29.64-43.8,2.77-4.44,4.8-9.31,5.97-14.35,14.45-2.97,26.45-13.47,30.96-27.3.12-.38.18-.77.17-1.16,0-.1,0-.2-.02-.3-.75-6.76-11.73-11.72-32.65-14.76-.8-2.92-2.97-5.62-6.54-8.15,11.11-.46,21.35-1.62,29.56-3.39,12.86-2.77,19.11-6.66,19.11-11.89,0-5.53-7.09-8.24-9.42-9.13-.34-.13-.71-.21-1.07-.22-6.88-.3-13.95-.45-21-.45h0Z"/><g><circle class="cls-9" cx="231.41" cy="164.46" r="29.66"/><path d="m231.41,195.84c-17.3,0-31.38-14.08-31.38-31.38s14.08-31.38,31.38-31.38,31.38,14.08,31.38,31.38-14.08,31.38-31.38,31.38Zm0-59.33c-15.41,0-27.95,12.54-27.95,27.95s12.54,27.95,27.95,27.95,27.95-12.54,27.95-27.95-12.54-27.95-27.95-27.95h0Z"/></g></svg>